<svg xmlns="http://www.w3.org/2000/svg" xmlns:xlink="http://www.w3.org/1999/xlink" viewBox="0 0 6021.58 1770"><defs><style>.cls-1{fill:none;}.cls-17,.cls-2{fill:#e61e24;}.cls-10,.cls-11,.cls-12,.cls-13,.cls-14,.cls-15,.cls-16,.cls-2,.cls-4,.cls-5,.cls-7,.cls-8,.cls-9{fill-rule:evenodd;}.cls-3{clip-path:url(#clip-path);}.cls-12,.cls-15,.cls-4,.cls-6{fill:#631941;}.cls-4{opacity:0.4;}.cls-15,.cls-16,.cls-4,.cls-9{isolation:isolate;}.cls-16,.cls-5,.cls-9{fill:#fff;}.cls-7{fill:#b4acbd;}.cls-8{fill:#f9944b;}.cls-15,.cls-9{opacity:0.5;}.cls-10{fill:#f69;}.cls-11{fill:#7d6991;}.cls-13{fill:#fc0;}.cls-14{fill:#8e7ca3;}.cls-16{opacity:0.48;}</style><clipPath id="clip-path"><path class="cls-1" d="M646.41,0c337,0,613.69,257.87,643.68,587L877,615.47,1292.7,636c0,3.47.13,7,.13,10.44,0,227.53-117.57,427.58-295.27,542.77-72.5-25.86-176.59-42.08-292.26-42.08-156.87,0-292.45,29.82-356.77,73.09a649.39,649.39,0,0,1-225-193.72l520.22-25.67L82.29,962.17A647.27,647.27,0,0,1,64.41,364.84l324.18-16-304.74-21C195,132.1,405.24,0,646.41,0"/></clipPath></defs><g id="Layer_2" data-name="Layer 2"><g id="Layer_1-2" data-name="Layer 1"><g id="Layer_2-2" data-name="Layer 2"><g id="Layer_1-2-2" data-name="Layer 1-2"><path class="cls-2" d="M646.41,0c337,0,613.69,257.87,643.68,587L877,615.47,1292.7,636c0,3.47.13,7,.13,10.44,0,227.53-117.57,427.58-295.27,542.77-72.5-25.86-176.59-42.08-292.26-42.08-156.87,0-292.45,29.82-356.77,73.09a649.39,649.39,0,0,1-225-193.72l520.22-25.67L82.29,962.17A647.27,647.27,0,0,1,64.41,364.84l324.18-16-304.74-21C195,132.1,405.24,0,646.41,0"/><g class="cls-3"><path class="cls-4" d="M702.64,1496.54c230.62,0,417.57,61.2,417.57,136.71S933.26,1770,702.64,1770s-417.57-61.21-417.57-136.72,187-136.71,417.57-136.71"/><path class="cls-5" d="M981.86,834.63c87.2-317.33-103.63-561.23-424.79-492.19C383,379.85,273,554.12,288.49,731.46a370.74,370.74,0,0,0,331.91,336.6c221.94,18.41,373.05-75.22,367.33-166.48-1.74-28-12.36-48.34-5.87-67"/><path class="cls-6" d="M1001.35,591.21c15.61,72.66,12.8,156.13-11.64,245.22a6.32,6.32,0,0,1-.24.85c-3.27,9.37-1,20.52,1.69,33.52,1.87,9.11,3.92,19,4.62,30.31a89.17,89.17,0,0,1-.12,12.87c-3.28,39.5-32.74,78.2-82.41,108.07-48.37,29.07-116.27,50-197.88,55.17h-.22a657.69,657.69,0,0,1-95.41-1.14h-.12A378.83,378.83,0,0,1,280.45,732.15c-8-92.12,17.13-183.48,67.21-256C396.1,406,467.83,353.38,555.4,334.56c79.07-17,150.51-15.3,212.14,1.64s113.12,48.9,152.81,92.59,67.35,98.93,81,162.42m-27.16,241c23.72-86.49,26.48-167.38,11.38-237.65-13-60.65-39.42-113.38-77.15-154.91s-86.73-71.88-145.11-87.92c-59.17-16.26-128-17.84-204.57-1.39-83.32,17.91-151.65,68.06-197.83,134.94-48,69.51-72.09,157.11-64.38,245.5A362.65,362.65,0,0,0,621.07,1060h0a644,644,0,0,0,93.07,1.14h.19c78.93-5,144.32-25.06,190.65-52.91,45.09-27.11,71.76-61.34,74.59-95.58a72,72,0,0,0,.12-10.59c-.64-10.19-2.55-19.5-4.3-28-3.14-15.29-5.82-28.37-1.2-41.86Z"/><path class="cls-7" d="M601.15,334.8q-21.6,2.83-44.08,7.64C383,379.85,273,554.12,288.49,731.46c.23,2.58.49,5.16.76,7.73,5.22-134.89,172-132.22,272.91-226.73q117.89-114,39-177.66"/><path class="cls-8" d="M981.86,834.63c68.38-248.83-34.21-452.48-236.52-495.53-154.52,298.9,77.13,576.16,239,538.58-3.28-16.48-7-30.19-2.48-43"/><path class="cls-7" d="M318,546.66h0C360.94,446,446,366.33,557.07,342.44c8.18-1.76,16.26-3.26,24.27-4.62v-.05Q529.1,229.55,392.86,190.46c-65.37,71.93-93.11,193.87-74.85,356.2"/><path class="cls-6" d="M323.22,516.78a366.2,366.2,0,0,1,86.7-109.89A329.69,329.69,0,0,1,555.4,334.56c4-.86,8.11-1.69,12.38-2.5l1.48-.28a245.6,245.6,0,0,0-66.11-78.61Q459,218.66,395.49,199.64c-30.29,34.88-51.92,81.41-63.92,138.51-10.78,51.32-13.79,111.13-8.35,178.63m-5.2,38h0a8.09,8.09,0,0,1-8-7.18c-9.12-81.17-6.84-152.46,5.81-212.67,13-61.9,37-112.17,70.83-149.54a8.06,8.06,0,0,1,8.44-2.63q69.58,20,118,57.79a261.94,261.94,0,0,1,75.31,93.32,7.65,7.65,0,0,1,.94,2.77h0a8.06,8.06,0,0,1-6.64,9.14q-6,1-11.92,2.12-5.68,1.08-12,2.44a313.71,313.71,0,0,0-138.35,68.8c-40.91,34.95-73.2,79.86-94.73,130.15a8.08,8.08,0,0,1-7.71,5.44Z"/><path class="cls-9" d="M580.45,336Q529.11,231.54,398.72,192.19a127.66,127.66,0,0,0-7.78,11Q499.74,251,548.17,341.31q18-2.31,32.28-5.34"/><path class="cls-10" d="M378.06,450c39.31-45.53,90-80.74,149.2-99.59h0q-45.69-67-119.92-83Q375.3,336,378.05,450Z"/><path class="cls-6" d="M451,396a332.2,332.2,0,0,0-66.44,58.8,8,8,0,0,1-6.49,3.27h0a8,8,0,0,1-8-7.85q-1.4-57.71,6-104.08T399.8,264.6a8.06,8.06,0,0,1,9.26-5.05,193.36,193.36,0,0,1,70,30q31.21,21.61,54.9,56.3h0A8.06,8.06,0,0,1,531.75,357a8.4,8.4,0,0,1-2,1A311.74,311.74,0,0,0,451,396m-65.1,33.51A345.47,345.47,0,0,1,442,382.59a328.47,328.47,0,0,1,72.36-36.37,193.32,193.32,0,0,0-44.53-43.45,176.26,176.26,0,0,0-57.9-26q-13.5,31.26-20,71.87-5.87,36.64-6,80.84Z"/><path class="cls-8" d="M757.42,341.85h0c97.44,24.33,170.45,86.9,210.56,174h0a383.58,383.58,0,0,0,13-231.28c-73.9-7.14-153.9,16.22-223.55,57.28"/><path class="cls-6" d="M778.31,339.35c41.63,12.89,78.52,32.9,110,58.89a318.31,318.31,0,0,1,78.47,97,375.62,375.62,0,0,0,7.8-203.13c-33.21-2.48-67.62,1.25-101.68,10a425.39,425.39,0,0,0-94.57,37.28m-22.82,10.34A8.07,8.07,0,0,1,751.06,337a7.94,7.94,0,0,1,2.27-2C789.74,313.43,829,296.7,868.9,286.48c37.76-9.67,76-13.47,112.82-9.92h0a8,8,0,0,1,7,6,391.33,391.33,0,0,1-13,235.74,8,8,0,0,1-5.48,5.32h-.06a8.07,8.07,0,0,1-9.52-4.37C940.94,476.39,913,439.61,878,410.68c-34.31-28.36-75.48-49.22-122.52-61Z"/><path class="cls-9" d="M971.13,507.47A383.52,383.52,0,0,0,981,284.57c-1.91-.18-3.82-.35-5.73-.48-2.69,3-5.43,6.26-8.24,9.73q20.64,54.9-18.14,186.35,11.42,18.18,22.27,27.3"/><path class="cls-10" d="M843.23,376.57a302.46,302.46,0,0,1,83,71.63h.06q28.14-53.38,21.61-116.12c-29.27-4.54-64.17,7.5-104.71,44.5Z"/><path class="cls-6" d="M882.73,414.66a294.21,294.21,0,0,0-43-30.78,8.08,8.08,0,0,1-4.63-7.31h0a8.1,8.1,0,0,1,2.63-6C858,352.18,877,339.68,894.67,332.15c19.5-8.28,37.53-10.57,54.05-8.1a8.05,8.05,0,0,1,7.23,7.2,217.3,217.3,0,0,1-2.23,62.67,203.79,203.79,0,0,1-20.08,57.66,8.06,8.06,0,0,1-5.11,4.37h0a8.08,8.08,0,0,1-8.49-2.7,294.18,294.18,0,0,0-37.26-38.59m-26-39.26a310.21,310.21,0,0,1,67.74,58.15A185.56,185.56,0,0,0,937.89,391a199.76,199.76,0,0,0,2.62-51.67c-12.07-.76-25.25,1.57-39.53,7.63-13.73,5.86-28.47,15.14-44.21,28.44Z"/><path class="cls-5" d="M539.94,1050.75a537.31,537.31,0,0,0-234.83,375.18c-14,164.35,81.59,210.49,172.8,130.29,64.22-4.2,79.15-59.38,25.78-141.14q17.16-27.12,29.09-98,60.48,30,240.15,21.13c24.1-2.64,53.43-.68,64.81,23.09h0l.43.91,31.65-6q134.23-79.1,84.52-112-81.62-129.49-136.88-191.45c-83.92,22.55-193.86,26-277.53-2.07"/><path class="cls-6" d="M536.55,1310a8.06,8.06,0,0,1,4.18,8.44M375.26,1208.78A545.43,545.43,0,0,1,535.49,1044h0a8,8,0,0,1,7-.92c39.27,13.15,84.53,19.24,130.1,19.58,49.68.37,99.71-6.09,142.8-17.66h0a8,8,0,0,1,8.1,2.43q27.85,31.24,62.4,79.56,33.95,47.44,74.37,111.52a39.69,39.69,0,0,1,11.51,12h0a29,29,0,0,1,3.77,19.11q-1.27,9.42-8.11,19.75Q947.26,1320,874.3,1363a8,8,0,0,1-3,1.22l-31.33,5.9a8.06,8.06,0,0,1-9.16-4.55l-.42-.9h0c-4.53-9.32-12.78-14.44-22.37-17-10.65-2.84-23-2.65-34.27-1.42h-.47q-90.54,4.44-150.95-.86-52.65-4.64-83.42-16.78a485,485,0,0,1-11.67,50.65q-6.48,21.84-14.12,35.61c19.46,30.83,29.45,58.16,30.92,80.64.82,12.46-1,23.54-5.14,33a54.19,54.19,0,0,1-20.3,23.68c-9.88,6.45-22.44,10.49-37.42,11.82-23.31,20-47,32.19-69.39,36.69-21.36,4.29-41.44,1.59-58.8-8s-31.58-25.64-41.62-48.33c-12.8-28.94-18.62-68.77-14.33-119.16h0v-.42a545.28,545.28,0,0,1,77.8-215.49Zm165.92-149.15A529.15,529.15,0,0,0,389,1217.3l-.36.54A529,529,0,0,0,313.2,1426.6h0c-4.06,47.57,1.25,84.74,13,111.33,8.55,19.32,20.48,32.91,34.61,40.7s30.35,9.86,47.88,6.34c20.25-4.07,42.11-15.63,63.93-34.8a8,8,0,0,1,5.12-2c13.26-.9,24-4.14,32.15-9.43a38.18,38.18,0,0,0,14.3-16.68c3.15-7.13,4.47-15.68,3.83-25.5-1.36-20.82-11.37-46.94-31-77.09a8,8,0,0,1-.05-8.67h0q8-12.61,14.93-36,7.14-24,13-59a8.05,8.05,0,0,1,9.27-6.62,7.89,7.89,0,0,1,2.45.83q28.84,14.19,87.2,19.33,59.52,5.22,148.46.88c12.81-1.4,27.11-1.54,39.94,1.88,12.33,3.28,23.22,9.73,30.32,21.16l24.51-4.62q68.94-40.76,87-68.07,4.8-7.26,5.58-13a13.38,13.38,0,0,0-1.67-8.8h0a25.11,25.11,0,0,0-8-7.79,7.85,7.85,0,0,1-2.57-2.74q-40.51-64.27-74.56-111.88-31.89-44.62-58.06-74.48c-43.2,11.11-92.84,17.26-142.18,16.9C626.76,1078.44,581.19,1072.47,541.18,1059.63Z"/><path class="cls-8" d="M425,1153.84A537.63,537.63,0,0,0,322,1346.5c55.21,50.42,99.9,42.24,106.18-28.86,2.92-33.08-4.72-60,5.49-82.21q22.57-50.31-8.71-81.59"/><path class="cls-8" d="M631,1338q57.94,4.34,141.91.21c24.1-2.64,53.43-.68,64.81,23.09h0l.43.91,31.65-6q134.24-79.1,84.52-112-53.39-84.7-95.49-140.5A177.08,177.08,0,0,0,631,1243.62q-11,64.1,0,94.41"/><path class="cls-6" d="M536.55,1310a8.06,8.06,0,0,1,4.18,8.44M375.26,1208.78A545.43,545.43,0,0,1,535.49,1044h0a8,8,0,0,1,7-.92c39.27,13.15,84.53,19.24,130.1,19.58,49.68.37,99.71-6.09,142.8-17.66h0a8,8,0,0,1,8.1,2.43q27.85,31.24,62.4,79.56,33.95,47.44,74.37,111.52a39.69,39.69,0,0,1,11.51,12h0a29,29,0,0,1,3.77,19.11q-1.27,9.42-8.11,19.75Q947.26,1320,874.3,1363a8,8,0,0,1-3,1.22l-31.33,5.9a8.06,8.06,0,0,1-9.16-4.55l-.42-.9h0c-4.53-9.32-12.78-14.44-22.37-17-10.65-2.84-23-2.65-34.27-1.42h-.47q-90.54,4.44-150.95-.86-52.65-4.64-83.42-16.78a485,485,0,0,1-11.67,50.65q-6.48,21.84-14.12,35.61c19.46,30.83,29.45,58.16,30.92,80.64.82,12.46-1,23.54-5.14,33a54.19,54.19,0,0,1-20.3,23.68c-9.88,6.45-22.44,10.49-37.42,11.82-23.31,20-47,32.19-69.39,36.69-21.36,4.29-41.44,1.59-58.8-8s-31.58-25.64-41.62-48.33c-12.8-28.94-18.62-68.77-14.33-119.16h0v-.42a545.28,545.28,0,0,1,77.8-215.49Zm165.92-149.15A529.15,529.15,0,0,0,389,1217.3l-.36.54A529,529,0,0,0,313.2,1426.6h0c-4.06,47.57,1.25,84.74,13,111.33,8.55,19.32,20.48,32.91,34.61,40.7s30.35,9.86,47.88,6.34c20.25-4.07,42.11-15.63,63.93-34.8a8,8,0,0,1,5.12-2c13.26-.9,24-4.14,32.15-9.43a38.18,38.18,0,0,0,14.3-16.68c3.15-7.13,4.47-15.68,3.83-25.5-1.36-20.82-11.37-46.94-31-77.09a8,8,0,0,1-.05-8.67h0q8-12.61,14.93-36,7.14-24,13-59a8.05,8.05,0,0,1,9.27-6.62,7.89,7.89,0,0,1,2.45.83q28.84,14.19,87.2,19.33,59.52,5.22,148.46.88c12.81-1.4,27.11-1.54,39.94,1.88,12.33,3.28,23.22,9.73,30.32,21.16l24.51-4.62q68.94-40.76,87-68.07,4.8-7.26,5.58-13a13.38,13.38,0,0,0-1.67-8.8h0a25.11,25.11,0,0,0-8-7.79,7.85,7.85,0,0,1-2.57-2.74q-40.51-64.27-74.56-111.88-31.89-44.62-58.06-74.48c-43.2,11.11-92.84,17.26-142.18,16.9C626.76,1078.44,581.19,1072.47,541.18,1059.63Z"/><path class="cls-11" d="M469.61,1018.66h0a369.53,369.53,0,0,0,150.76,49.4c104.26,8.64,192.89-7.43,257-36.37h0c3.78-1.71,7.46-3.47,11.07-5.26a37.63,37.63,0,0,1,40,59.34q78.38,41.57-81,169.19-194.09-33-304.91-135.72-62-48.87-111.91,27.92-125.26,27.88,55.81-84-161.49,22.74-16.89-44.49"/><path class="cls-6" d="M387.51,1146.62v0ZM932.45,1031.7a8,8,0,0,1-.75,10.92M539.79,1059.2a377.43,377.43,0,0,1-70.58-31.45q-61.65,28.79-60.13,32.8,1.92,5.09,76.32-5.39h0a8,8,0,0,1,5.33,14.81q-78.6,48.55-98.3,70a53.92,53.92,0,0,0-3.78,4.48q10.1,1.36,37.12-4.44,25.94-38.54,55.94-46,31.79-7.92,65.87,18.94h0l.51.44q54.43,50.44,129.43,83.83,73.88,32.88,167.77,49.23,75.8-61.15,94.87-101,16.9-35.33-15.43-52.49h0a7.26,7.26,0,0,1-1.2-.78A8,8,0,0,1,922.1,1081l0-.07a29.58,29.58,0,0,0,6.23-19.54v-.06a29.51,29.51,0,0,0-7.68-18.54l-.39-.38a29.38,29.38,0,0,0-29-8.26l-4.8,2.35h0c-2,.93-3.89,1.82-5.73,2.66h0c-34,15.36-74.73,27.16-120.91,33.69-42.42,6-89.44,7.58-140,3.38h-.12A378.66,378.66,0,0,1,539.79,1059.2Zm-70.18-48.61h0a8,8,0,0,1,4.52,1.37,361.71,361.71,0,0,0,146.94,48h0c49.43,4.09,95.25,2.58,136.5-3.26,44.57-6.31,83.81-17.67,116.49-32.43h.2c1.84-.84,3.6-1.65,5.27-2.45h0c2.55-1.22,4.21-2,5.37-2.6a9.3,9.3,0,0,1,1.36-.52h0a45.77,45.77,0,0,1,45.8,12.57l.4.47a45.52,45.52,0,0,1,12,28.75v.23a45.57,45.57,0,0,1-4.8,22.36q36.54,24.27,15,69.26-21,44-102.12,108.93a8.09,8.09,0,0,1-6.38,1.67h0q-98-16.68-175.22-51t-133.53-86.43q-27.79-21.84-51.88-15.83-24.87,6.19-48.11,41.93a8,8,0,0,1-5.13,3.5q-34.26,7.62-47.65,5.07h0q-13.42-2.57-13.21-13.79.15-7.48,9.16-17.27,16.89-18.36,71.81-53.88-53.36,4.37-58.39-8.93-6.88-18.11,72.24-54.89a8,8,0,0,1,3.37-.74Z"/><path class="cls-9" d="M933,1088.34q12.94-45.4-20.07-60.64A169.53,169.53,0,0,0,897,1035q33.51,16.5,10.23,51.82,5.58,5.46-5.66,21.26,65.86-6-8.14,95.11c8.76-4.79,19.83-11.22,27.2-15.84q60.55-67.33,12.35-99"/><path class="cls-6" d="M928,1067.22a8.06,8.06,0,0,1,15.9,2.65q-4.7,27.75-41,35.72-32.39,7.11-91.94-1.89a8.09,8.09,0,0,1,2.4-16q56.64,8.55,86.14,2.08,25.61-5.62,28.48-22.6"/><path class="cls-6" d="M537.34,1214.44a8,8,0,0,1,16,1.44q-7.1,78.7-17.59,129.06-10.69,51.4-25.26,74.42a8.05,8.05,0,0,1-13.63-8.57q13-20.57,23.12-69.13,10.32-49.61,17.34-127.22"/><path class="cls-2" d="M532.78,1317.11q75.6-20.34,126.15-119.69a505.54,505.54,0,0,1-54.81-30.61q-17.82,58.32-61.93,80.33-4.22,39.12-9.41,70"/><path class="cls-6" d="M607.67,1282.85q-33,31.35-72.81,42.06h0a8.3,8.3,0,0,1-3.4.16,8.06,8.06,0,0,1-6.63-9.27h0q2.59-15.4,4.92-32.66,2.29-17.06,4.38-36.43a8.06,8.06,0,0,1,4.46-6.78,99.79,99.79,0,0,0,34.76-28.8q14.48-18.75,22.93-46.16a8.06,8.06,0,0,1,12.18-4.94h0q12.85,8.28,26.17,15.72T662.07,1190l.52.24a8.07,8.07,0,0,1,3.54,10.84h0q-25.89,50.87-58.45,81.76m-64.86,22.61q28.86-10.67,53.75-34.29,28.19-26.73,51.4-70.15-10.73-5.38-21.14-11.2-9.42-5.25-18.31-10.73-8.78,24.18-22.41,41.88a116,116,0,0,1-36.37,31.33q-1.89,17.19-4,33-1.43,10.47-2.92,20.16Z"/><path class="cls-11" d="M891.87,1314.25q83.94-23.25,62.48-70,39.6-9.87,31.63,52.34,12.09,23.92,5,52,29.94,57.45,43.44,115.82-34,24.28-135.7,50.67-74.54,27.48-131.19,67a345,345,0,0,1-289.59-25.85c64.22-4.2,79.15-59.38,25.78-141.14q17.16-27.12,29.09-98,60.48,30,240.15,21.13,51.84-5.91,65.25,24c5.82-1.09,28.88-5.36,31.65-6,.38-19,2.33-33.22,22-42"/><path class="cls-6" d="M536.55,1310a8.06,8.06,0,0,1,4.18,8.44m385.46-7.84a213.91,213.91,0,0,1-31.57,11.23c-7.4,3.43-11.44,7.68-13.61,12.76-2.41,5.66-2.94,12.88-3.12,21.23a8.1,8.1,0,0,1-6.35,8.37c-2,.42-20.79,3.93-29.26,5.5l-2.53.48a8,8,0,0,1-8.93-4.62q-5.3-11.83-18.43-16.68-14.53-5.36-38.57-2.62h-.51q-90.54,4.44-150.95-.86-52.65-4.64-83.42-16.78a485,485,0,0,1-11.67,50.65q-6.48,21.84-14.12,35.61c19.46,30.83,29.45,58.16,30.92,80.64.82,12.46-1,23.54-5.14,33a54.19,54.19,0,0,1-20.3,23.68,68.55,68.55,0,0,1-16.56,7.75,336.81,336.81,0,0,0,261.62,14.91A528.75,528.75,0,0,1,825,1538.41a651.94,651.94,0,0,1,71-30.86h0c.25-.09.49-.17.76-.24q50.47-13.08,84-25.6,28.63-10.68,44.59-20.83a456.76,456.76,0,0,0-16-51.77,514.14,514.14,0,0,0-25.45-56.76h0a8,8,0,0,1-.68-5.67,71.12,71.12,0,0,0,2.13-24.35,61.74,61.74,0,0,0-6.47-22.09h0a8,8,0,0,1-.8-4.64q3.63-28.3-2.84-39-3.06-5.07-9.84-5.51,4.74,18.6-5.62,34-9.91,14.64-33.54,25.51Zm-36.45-4.12A200.92,200.92,0,0,0,919.5,1296q19.47-9,26.81-19.85,6.54-9.72,3.2-21.83a43.74,43.74,0,0,0-2.47-6.67,8,8,0,0,1,4-10.66h0a8.93,8.93,0,0,1,1.43-.49h0q25.54-6.37,36.54,11.8,9,14.91,5.28,47a77.39,77.39,0,0,1,7,25.6,86.26,86.26,0,0,1-1.79,26.76,528.36,528.36,0,0,1,24.83,55.92,469.08,469.08,0,0,1,17.92,59.15,8,8,0,0,1-3.44,8.55q-17.8,12.63-52.51,25.6-34.15,12.75-85,26a635,635,0,0,0-69,30,514,514,0,0,0-60.17,35.91,8.39,8.39,0,0,1-2.52,1.17,353.07,353.07,0,0,1-295.71-26.67,8.06,8.06,0,0,1,3.53-15h0c13.39-.88,24.28-4.12,32.45-9.45a38.18,38.18,0,0,0,14.3-16.68c3.15-7.13,4.47-15.68,3.83-25.5-1.36-20.82-11.37-46.94-31.05-77.09a8,8,0,0,1,0-8.67h0q8-12.62,14.93-36,7.14-24,13-59a8.05,8.05,0,0,1,9.27-6.62,7.89,7.89,0,0,1,2.45.83q28.85,14.19,87.2,19.33,59.5,5.23,148.4.88,27.74-3.12,45.79,3.52,16.23,6,24.57,19.54c5.76-1.07,13.86-2.58,19.49-3.65.41-7.8,1.42-14.86,4.19-21.34,3.78-8.85,10.43-16,22.41-21.39a8.15,8.15,0,0,1,1.13-.51Z"/><path class="cls-9" d="M1025.31,1431.14q5.22,16.6,9.08,33.31-16.83,12-50.28,24.57-6.32-3.6-13.22-7.84,57.55-1.17,19.16-123.11a517.19,517.19,0,0,1,35.26,73.07"/><path class="cls-6" d="M536.55,1310a8.06,8.06,0,0,1,4.18,8.44m385.46-7.84a213.91,213.91,0,0,1-31.57,11.23c-7.4,3.43-11.44,7.68-13.61,12.76-2.41,5.66-2.94,12.88-3.12,21.23a8.1,8.1,0,0,1-6.35,8.37c-2,.42-20.79,3.93-29.26,5.5l-2.53.48a8,8,0,0,1-8.93-4.62q-5.3-11.83-18.43-16.68-14.53-5.36-38.57-2.62h-.51q-90.54,4.44-150.95-.86-52.65-4.64-83.42-16.78a485,485,0,0,1-11.67,50.65q-6.48,21.84-14.12,35.61c19.46,30.83,29.45,58.16,30.92,80.64.82,12.46-1,23.54-5.14,33a54.19,54.19,0,0,1-20.3,23.68,68.55,68.55,0,0,1-16.56,7.75,336.81,336.81,0,0,0,261.62,14.91A528.75,528.75,0,0,1,825,1538.41a651.94,651.94,0,0,1,71-30.86h0c.25-.09.49-.17.76-.24q50.47-13.08,84-25.6,28.63-10.68,44.59-20.83a456.76,456.76,0,0,0-16-51.77,514.14,514.14,0,0,0-25.45-56.76h0a8,8,0,0,1-.68-5.67,71.12,71.12,0,0,0,2.13-24.35,61.74,61.74,0,0,0-6.47-22.09h0a8,8,0,0,1-.8-4.64q3.63-28.3-2.84-39-3.06-5.07-9.84-5.51,4.74,18.6-5.62,34-9.91,14.64-33.54,25.51Zm-36.45-4.12A200.92,200.92,0,0,0,919.5,1296q19.47-9,26.81-19.85,6.54-9.72,3.2-21.83a43.74,43.74,0,0,0-2.47-6.67,8,8,0,0,1,4-10.66h0a8.93,8.93,0,0,1,1.43-.49h0q25.54-6.37,36.54,11.8,9,14.91,5.28,47a77.39,77.39,0,0,1,7,25.6,86.26,86.26,0,0,1-1.79,26.76,528.36,528.36,0,0,1,24.83,55.92,469.08,469.08,0,0,1,17.92,59.15,8,8,0,0,1-3.44,8.55q-17.8,12.63-52.51,25.6-34.15,12.75-85,26a635,635,0,0,0-69,30,514,514,0,0,0-60.17,35.91,8.39,8.39,0,0,1-2.52,1.17,353.07,353.07,0,0,1-295.71-26.67,8.06,8.06,0,0,1,3.53-15h0c13.39-.88,24.28-4.12,32.45-9.45a38.18,38.18,0,0,0,14.3-16.68c3.15-7.13,4.47-15.68,3.83-25.5-1.36-20.82-11.37-46.94-31.05-77.09a8,8,0,0,1,0-8.67h0q8-12.62,14.93-36,7.14-24,13-59a8.05,8.05,0,0,1,9.27-6.62,7.89,7.89,0,0,1,2.45.83q28.85,14.19,87.2,19.33,59.5,5.23,148.4.88,27.74-3.12,45.79,3.52,16.23,6,24.57,19.54c5.76-1.07,13.86-2.58,19.49-3.65.41-7.8,1.42-14.86,4.19-21.34,3.78-8.85,10.43-16,22.41-21.39a8.15,8.15,0,0,1,1.13-.51Z"/><path class="cls-2" d="M987.28,1280a156.94,156.94,0,0,1-1.3,16.64q12.09,23.92,5,52l.18.34q-21.52,20.64-81.12,42.21c60.69,33.36,2.82,102.86-43.89,56.54-14.55,66.32-112.07,20.76-64.68-29.4q-158.09,31.79-289.83-18.75,3.08-7.27,6-16.19v-.12l.09-.28.07-.22q2.54-7.74,4.45-15.29h0v-.07q201.27,13,315.92-5.13h0l.79-.15q16-2.54,30.32-5.71l.54-.12h0q101.92-22.63,117.45-76.32"/><path class="cls-6" d="M985.25,1322.33a60.51,60.51,0,0,0-3.21-14.49q-10.41,13.7-27.5,24.81-30.4,19.75-82.44,31.37l-.5.13h0l-.58.15q-6.84,1.52-15,3-7.39,1.4-15.78,2.73a10.83,10.83,0,0,1-1.11.21l-.72.06q-57.58,9-136.46,10.28-76.87,1.26-173.67-4.78l-.42,1.46c-.84,2.9-1.65,5.52-2.44,8l-.08.22h0l-.12.4q-1.5,4.68-3,8.79l-.08.23a461,461,0,0,0,128.31,26.59q71.25,4.6,148.94-11a8.05,8.05,0,0,1,7.92,13.31c-10.87,11.51-12.5,22.25-9,30.53,2.62,6.12,8,11.2,14.47,14.47a35.29,35.29,0,0,0,21.63,3.49c10.53-1.84,20.17-9.76,23.8-26.31h0a8,8,0,0,1,13.54-4c13.16,13,27,15.21,37.68,11.28a29.19,29.19,0,0,0,13-9.62,26.28,26.28,0,0,0,5.51-14.53c.56-10.32-5.55-21.91-21.92-30.9h0a8.06,8.06,0,0,1,1.14-14.63q29.15-10.55,49.1-20.92,17.41-9.06,27.16-17.65a70.28,70.28,0,0,0,1.73-22.71m10.07-41.92c-.05,2.84-.2,5.55-.39,8.13-.15,1.92-.39,4.16-.68,6.66a77.43,77.43,0,0,1,7,25.62,86.79,86.79,0,0,1-2.09,28,8,8,0,0,1-2.76,6.19q-11.62,11-32.62,22a376.16,376.16,0,0,1-36.6,16.3c12.71,11.11,17.58,24.3,16.92,36.66a42.54,42.54,0,0,1-8.79,23.49,45.44,45.44,0,0,1-20.31,15c-13.21,4.89-29.32,3.88-44.88-6.89-7,16.08-19.46,24.32-32.93,26.68a51.57,51.57,0,0,1-31.67-5c-9.74-4.91-17.88-12.79-22-22.55-3.93-9.2-4.41-19.83.46-30.92q-69.87,12-134.54,7.81a476.42,476.42,0,0,1-140.69-30.45,8.05,8.05,0,0,1-4.68-10.38v0a6,6,0,0,1,.36-.82c.8-1.94,1.69-4.2,2.64-6.79s1.92-5.39,2.84-8.21l.1-.3v-.07h0l.08-.21c.88-2.73,1.67-5.24,2.31-7.44s1.29-4.6,2-7.23h0v-.09a8.09,8.09,0,0,1,8.86-6.15q100.2,6.45,178.48,5.18t135.22-10.25l.47-.06h.29q7.62-1.21,15.37-2.67c4.65-.88,9.47-1.87,14.42-3a8.13,8.13,0,0,1,1.3-.28q49-11,77-29.12,26.85-17.45,33.79-41.42a8,8,0,0,1,15.76,2.68Z"/><path class="cls-9" d="M987.28,1280a156.94,156.94,0,0,1-1.3,16.64q12.09,23.92,5,52l.18.35a109.85,109.85,0,0,1-18.87,14c-2.06-.77-4.16-1.68-6.33-2.74,31.44-49.49-120,52-301.36,18.94l11.64-6.43q95.5,0,162-10.55h0l.8-.15q16-2.57,30.32-5.7l.54-.13h0q101.92-22.63,117.45-76.32"/><path class="cls-6" d="M857.32,1392.48a8.06,8.06,0,0,1,15.84-3q4.82,25.23,3.36,44.54-1.53,20.13-9.9,34.16a8.05,8.05,0,1,1-13.82-8.27h0q6.38-10.7,7.63-27.09,1.29-17.22-3.11-40.32"/><path class="cls-6" d="M798.21,1437.48a8.07,8.07,0,0,1-14.27-7.53,3.9,3.9,0,0,1,.19-.35,98.85,98.85,0,0,1,20.63-25.89,81.39,81.39,0,0,1,27.11-16.14,8,8,0,1,1,5.23,15.2h0a65.41,65.41,0,0,0-21.68,13,82.91,82.91,0,0,0-17.21,21.73"/><path class="cls-12" d="M816.22,1453.07a9.56,9.56,0,0,0,10.18,4.75c11.2-2.17,22.65-39,24.19-48.92-8.59,5.82-41.46,31.41-34.37,44.17"/><path class="cls-6" d="M819.86,1458.55a11.13,11.13,0,0,1-5-4.69c-3.05-5.49.06-12.67,5.62-19.82,8.77-11.28,23.82-22.79,29.25-26.47h0a1.53,1.53,0,0,1,1.14-.25,1.6,1.6,0,0,1,1.35,1.82h0c-1,6.12-5.61,22.34-11.65,34.56-4.06,8.2-8.85,14.74-13.82,15.7a11.14,11.14,0,0,1-6.85-.85m-2.24-6.26a8,8,0,0,0,8.48,3.94c3.81-.74,7.89-6.57,11.54-14a154.75,154.75,0,0,0,10.56-29.69c-6.64,4.92-18.07,14.27-25.21,23.45-4.86,6.22-7.67,12.22-5.41,16.3Z"/><path class="cls-12" d="M914.34,1436a7.32,7.32,0,0,1-6.83,5.23c-8.74.22-23.38-25.43-26.17-32.6,7.38,2.94,36.2,16.65,33,27.37"/><path class="cls-6" d="M910.8,1438.4a5.72,5.72,0,0,0,2-2.81v-.09c1-3.23-2-7.1-6.46-10.82l-.1-.07c-6.47-5.37-15.83-10.22-21.7-12.9a118.64,118.64,0,0,0,12.3,19.46c3.88,4.85,7.81,8.48,10.64,8.41a5.81,5.81,0,0,0,3.33-1.18m5.05-1.89h0a8.91,8.91,0,0,1-8.29,6.24c-4,.11-8.78-4-13.24-9.6-6.56-8.18-12.74-19.58-14.46-24a1.59,1.59,0,0,1,.9-2.06h0a1.68,1.68,0,0,1,1.17,0c4.68,1.86,17.89,8,26.34,15l.1.09c5.4,4.5,8.93,9.47,7.51,14.22Z"/><path class="cls-6" d="M887.11,1394a8,8,0,0,1,2.89-15.8,160.25,160.25,0,0,1,17.3,4.06,48.53,48.53,0,0,1,12.1,5.19,8,8,0,1,1-8.77,13.5,33.49,33.49,0,0,0-8-3.3,145.27,145.27,0,0,0-15.54-3.62"/><path class="cls-2" d="M815.9,1478.77q25.58,6.74,40.36-10,1.35,46.7-1.5,94.63a142.79,142.79,0,0,1-61.53-13.13q20.44-26.13,22.67-71.45"/><path class="cls-6" d="M840.7,1487.45a48.58,48.58,0,0,1-17.41.93,159.06,159.06,0,0,1-6.47,33.34,111.74,111.74,0,0,1-11.3,24.92,134.13,134.13,0,0,0,19.33,5.66,137,137,0,0,0,22.29,2.86q1.07-20.12,1.38-39.57.24-15.52,0-31a40.38,40.38,0,0,1-7.85,2.82M818,1471q10.79,2.84,18.9.82a26.06,26.06,0,0,0,13.38-8.41,8,8,0,0,1,14.07,5.11h0q.69,23.45.31,47.34-.39,24.12-1.82,48a8.06,8.06,0,0,1-8.44,7.57,154.25,154.25,0,0,1-32.84-3.32,150.68,150.68,0,0,1-31.63-10.54,8,8,0,0,1-4-10.57l0-.09a7.44,7.44,0,0,1,1.08-1.74,90.06,90.06,0,0,0,14.44-28.28,152.57,152.57,0,0,0,6.43-38.46,8.06,8.06,0,0,1,8.41-7.67,8.64,8.64,0,0,1,1.68.26Z"/><path class="cls-5" d="M1000.46,1482.5h0q-37.28,15.9-101.77,32.62-14.41,5.31-28.18,11.08-5.73,77.71,50.32,74.94,96.55-8.88,64.92-48.18-7-31,14.71-70.46"/><path class="cls-6" d="M921.88,1609.12h-.32m32.37-118.22q24.92-8,43.23-15.79a8.07,8.07,0,0,1,10.37,11.24q-10.31,18.69-13.72,35.11a69.86,69.86,0,0,0-.57,28,43.9,43.9,0,0,1,7,12.92q3.78,11.85-2.92,21.48-5.77,8.31-19.47,13.94-19.2,7.9-56,11.32l-.68.06q-32.53,1.62-47.67-20.9-14.13-21.06-11.06-62.65h0a8.06,8.06,0,0,1,4.95-6.87q7-2.94,14.08-5.72t14.41-5.49h0c.25-.09.49-.17.76-.24q32-8.31,57.29-16.38Zm30.45,6.59q-11.79,4.34-25.52,8.75-25.41,8.13-57.6,16.5-7.08,2.61-13.89,5.28-4.62,1.82-9.12,3.67-1.59,32.31,8.67,47.59,10,14.94,33.5,13.78,34.35-3.16,51.34-10.18,9.24-3.8,12.36-8.26a8.07,8.07,0,0,0,.82-7.41,29.76,29.76,0,0,0-5.47-9.23,7.94,7.94,0,0,1-1.62-3.52,85.08,85.08,0,0,1,.18-36.29,124.42,124.42,0,0,1,6.35-20.65Z"/><path class="cls-8" d="M875.49,1574.71q11.24,28.13,45.34,26.43a270.65,270.65,0,0,0,38.71-6,50.12,50.12,0,0,0-84-20.47"/><path class="cls-6" d="M921.88,1609.12h-.32m32.37-118.22q24.92-8,43.23-15.79a8.07,8.07,0,0,1,10.37,11.24q-10.31,18.69-13.72,35.11a69.86,69.86,0,0,0-.57,28,43.9,43.9,0,0,1,7,12.92q3.78,11.85-2.92,21.48-5.77,8.31-19.47,13.94-19.2,7.9-56,11.32l-.68.06q-32.53,1.62-47.67-20.9-14.13-21.06-11.06-62.65h0a8.06,8.06,0,0,1,4.95-6.87q7-2.94,14.08-5.72t14.41-5.49h0c.25-.09.49-.17.76-.24q32-8.31,57.29-16.38Zm30.45,6.59q-11.79,4.34-25.52,8.75-25.41,8.13-57.6,16.5-7.08,2.61-13.89,5.28-4.62,1.82-9.12,3.67-1.59,32.31,8.67,47.59,10,14.94,33.5,13.78,34.35-3.16,51.34-10.18,9.24-3.8,12.36-8.26a8.07,8.07,0,0,0,.82-7.41,29.76,29.76,0,0,0-5.47-9.23,7.94,7.94,0,0,1-1.62-3.52,85.08,85.08,0,0,1,.18-36.29,124.42,124.42,0,0,1,6.35-20.65Z"/><path class="cls-5" d="M497.34,1566.63h0a344.92,344.92,0,0,0,165.78,35.64h0q4.56,140.4-147,129.82-45.78-3.18-23.52-41.17,9.38-43.18,4.69-124.3"/><path class="cls-6" d="M576.33,1602.68a353.45,353.45,0,0,1-70.25-23q1.47,32.65.48,58.87-1.2,31.93-6,54.12h0a8.18,8.18,0,0,1-.93,2.37q-8.76,15-5.19,21.21,3.75,6.54,22.3,7.85,72.43,5,106.64-25.17,31.82-28.11,31.87-88.38a352.65,352.65,0,0,1-78.88-7.84M491.67,1561h0a8.08,8.08,0,0,1,9.79-1.26,337.14,337.14,0,0,0,161.41,34.57h.29a8.08,8.08,0,0,1,8.08,8.08v.47Q673.37,1676.18,634,1711t-118.37,29.2q-27.21-1.89-35.23-15.91t4.61-36.16q4.35-20.7,5.46-50.13,1.15-30.63-1.17-70.88a8,8,0,0,1,2.34-6.14Z"/><path class="cls-7" d="M497.34,1566.63h0a345.45,345.45,0,0,0,58.26,22.55,47.47,47.47,0,0,1-58.49,71.37q3.47-37.92.23-93.92"/><path class="cls-6" d="M434.56,1537.12A8.07,8.07,0,0,1,448.5,1529q7.19,12.3,18,16.36,11.25,4.22,27.41.25a8.05,8.05,0,1,1,3.78,15.65h0q-20.91,5.12-36.81-.82-16.31-6.12-26.34-23.3"/><path class="cls-13" d="M1151.36,1431.75q-65.31,9.46-87.32-15.39-53-76.08-54.74-156.52,3.24-40.52,105.86-2.71,102.15,149.68,36.2,174.62"/><path class="cls-6" d="M1098.26,1424.68q20.29,3.57,51.07-.78a38.44,38.44,0,0,0,7.35-3.86q10.88-7.41,12.29-22.28,1.58-16.76-8.26-42.77-14-37-50.75-91.18-48.09-17.49-72.38-16.87-19,.48-20.21,13.36a247.82,247.82,0,0,0,14.1,76.24q13.24,37.88,39,75,9.12,9.89,27.78,13.18m54.23,15q-33.93,4.92-57,.85-24.56-4.32-37.47-18.88c-.2-.24-.4-.49-.58-.74h0q-27.08-38.88-41.14-79.13a263.85,263.85,0,0,1-15-81.85v-.79h0q2.19-27.48,35.93-28.35,28-.7,80.75,18.7a8.1,8.1,0,0,1,4,3.23q38.88,57,53.83,96.54,11.13,29.43,9.2,50-2.1,22.41-19.22,34.08a55.55,55.55,0,0,1-11.58,6,9,9,0,0,1-1.7.43Z"/><path class="cls-6" d="M1098,1426.27q20.6,3.63,51.75-.8a41.58,41.58,0,0,0,5.71-2.74c-.82.13-1.66.24-2.53.35q-16.18,2-40.75-1.15a4.53,4.53,0,0,1-.73-.08c-15.58-2.71-29.36-14.55-42.36-35.18-12.25-19.45-24.07-47.08-36.38-82.64-6.5-18.77-10.49-33.47-11-44.54a41.67,41.67,0,0,1,.68-10.75c-.48.29-.93.59-1.36.9-3.07,2.29-4.82,5.81-5.22,10.55a249.81,249.81,0,0,0,14.2,76.88q13.34,38.13,39.25,75.42,9.51,10.38,28.78,13.78m54.29,11.87q-33.69,4.88-56.51.86-24-4.23-36.54-18.36c-.17-.2-.32-.39-.47-.6h0q-27-38.71-41-78.74A262.74,262.74,0,0,1,1002.9,1260v-.63h0q1-13,10.43-20,8.67-6.42,24-6.82a6.44,6.44,0,0,1,2.84,12.28h0c-4.3,2-6,6.64-5.62,14.14.49,9.7,4.23,23.3,10.35,40.95,12,34.61,23.4,61.38,35.12,80,11,17.41,21.93,27.29,33.61,29.32h.2q22.8,2.91,37.62,1.1,13.54-1.65,19.33-7.09a6.44,6.44,0,0,1,10.56,6.61h0a41,41,0,0,1-10.17,17,48.34,48.34,0,0,1-17.51,11,6.69,6.69,0,0,1-1.39.33Z"/><path class="cls-14" d="M1104.79,1365.72q24.42,4.29,44.32.45c19.9-3.84,48.56-41,150.19-117.17,19.32-14.47,27.65-26.56,20.81-42.52q-6.84-16-26.69-50.22-22.49-39.19-50.67-12.67-126,115.37-166,144.31-5.41,27.33,28.07,77.82"/><path class="cls-2" d="M1104.79,1365.72q24.42,4.29,44.32.45c19.9-3.84,3.91-3.3,11.81-9.76q-9.66-3-27.39-10.94-28.15-26.19-37.4-72.58-11.42,9.22-19.41,15-5.42,27.33,28.07,77.82"/><path class="cls-6" d="M1128,1374.41a149.5,149.5,0,0,1-24.35-2.33h0a6.47,6.47,0,0,1-4.27-2.8q-17.13-25.83-24.43-46.08-7.64-21.15-4.59-36.52h0a6.43,6.43,0,0,1,2.55-4c2.77-2,5.67-4.19,8.71-6.53s6.43-5,10.1-8a6.45,6.45,0,0,1,10.71,3.48,150.66,150.66,0,0,0,13.37,39.65,106.13,106.13,0,0,0,21.33,28.75q8.25,3.72,14.45,6.19,6.54,2.63,11,4a6.43,6.43,0,0,1,2.38,11.21c-7.6,6.2-11.29,9.32-11.29,9.32h0a6.43,6.43,0,0,1-3.35,1.77,111.92,111.92,0,0,1-22.3,1.91m-19.41-14.6a134.19,134.19,0,0,0,19.51,1.73,100.52,100.52,0,0,0,18.17-1.41l1.76-1.47-1.25-.49q-7.11-2.85-15.93-6.82A6.64,6.64,0,0,1,1129,1350a119.47,119.47,0,0,1-24.58-32.84,156.38,156.38,0,0,1-12.28-32.85l-2.58,2c-2.51,2-4.8,3.68-6.84,5.19q-1.37,11.31,4.41,27.32,6.38,17.79,21.49,41Z"/><path class="cls-13" d="M1287.15,1258.12l12.15-9.12c19.32-14.47,27.65-26.56,20.81-42.52q-6.84-16-26.69-50.22-22.49-39.19-50.67-12.67-19.76,18.09-37.39,34h0a205.32,205.32,0,0,0,45.51,78.39q20.81,2.87,36.28,2.1"/><path class="cls-6" d="M1303.16,1254.15l-11.92,8.95a6.4,6.4,0,0,1-3.79,1.45,161.41,161.41,0,0,1-17.46-.14q-9.27-.53-19.8-2a6.36,6.36,0,0,1-4-2,212,212,0,0,1-47-80.86h0a6.49,6.49,0,0,1,1.82-6.7l18.17-16.49,18.89-17.21.26-.26a56.58,56.58,0,0,1,10.39-7.89h0q10.53-6,20.76-4.13,10,1.88,18.77,11.22a79.18,79.18,0,0,1,10.6,14.66l.27.46,26.69,50.21h0l.23.49c4.26,9.94,3.75,18.75-.85,27.38-4.14,7.75-11.65,15-22,22.82m-18.27-2.38,10.55-7.92c8.93-6.69,15.25-12.69,18.39-18.58,2.63-4.92,2.91-10,.52-15.89l-26.63-50.1h0a66.42,66.42,0,0,0-8.83-12.3q-5.91-6.27-11.76-7.38-5.58-1-12,2.62h0a43.4,43.4,0,0,0-8,6.08l-.39.34-18.91,17.29-15.09,13.69a199.25,199.25,0,0,0,41.27,70.34q8.88,1.15,16.66,1.61,7.62.46,14.19.24Z"/><path class="cls-6" d="M1286.87,1229.11a4.84,4.84,0,0,1-1.85-9.5,171.17,171.17,0,0,1,20.54-2.89,90.24,90.24,0,0,1,17,.19,4.84,4.84,0,1,1-1.13,9.62,80.2,80.2,0,0,0-15.18-.16,162.09,162.09,0,0,0-19.37,2.74"/><path class="cls-5" d="M1052.8,1399.24q-41.94-68-43.5-139.4,1.29-16.06,18.18-19.82-23.91-30.33-82.72-86-8.84,16.17-25.86,35.3,17.05,25.76,35.45,54.94,33.82-8.43,32.94,35.7A157,157,0,0,1,986,1296.6q12.09,23.93,5,52l.18.34a512.25,512.25,0,0,1,31.15,72.8,19.79,19.79,0,0,0,30.52-22.53"/><path class="cls-6" d="M1028.66,1328a295.4,295.4,0,0,0,30.81,66.74,7.32,7.32,0,0,1,.9,1.76,27.67,27.67,0,0,1-9.11,31.43l-.52.42a27.92,27.92,0,0,1-33.32-.15h0a8.08,8.08,0,0,1-2.79-3.87q-6-17.89-13.72-35.89-7.57-17.71-16.95-35.73h0a8.11,8.11,0,0,1-.86-6,71.12,71.12,0,0,0,2.13-24.35,61.74,61.74,0,0,0-6.47-22.09h0a8,8,0,0,1-.8-4.6c.32-2.56.61-5.33.85-8.35.22-2.87.36-5.36.4-7.47q.36-18.8-5.68-25.37-5-5.42-17.28-2.34h0a8,8,0,0,1-8.74-3.53q-8.71-13.81-18-28.23-8.82-13.67-17.14-26.22a8.08,8.08,0,0,1,.48-10.14q8.32-9.33,14.51-17.79a145.28,145.28,0,0,0,10.31-16h0a7.72,7.72,0,0,1,1.21-1.68,8,8,0,0,1,11.31-.36l0,0q29.81,28.18,50.36,49.56,21.06,21.87,33.19,37.27h0a8.07,8.07,0,0,1-4.6,12.83q-11,2.43-11.84,12.41a245.93,245.93,0,0,0,11.29,67.71m16.78,74.64a309.94,309.94,0,0,1-32.17-69.85,262.31,262.31,0,0,1-12-72.8v-.79h0q1.23-15.53,13-22.62-10.32-12.16-25.21-27.66-18.13-18.86-42.5-42.12c-1.89,2.91-3.94,5.89-6.15,8.91q-5.1,7-11.37,14.3,7,10.63,14.09,21.61t15.13,23.69q17.31-2.49,27.2,8.21,10.39,11.28,9.91,36.61c-.06,2.93-.2,5.75-.4,8.41-.15,1.92-.39,4.16-.68,6.66a77.43,77.43,0,0,1,7,25.62,85.9,85.9,0,0,1-1.79,26.75q8.76,17.06,16.25,34.55,7.31,17.05,13.25,34.35a11.58,11.58,0,0,0,12.15-1.06l.36-.23a11.91,11.91,0,0,0,3.94-12.54Z"/><path class="cls-2" d="M931.36,1174.3q-5.55,7.26-12.46,15,12.48,18.85,25.68,39.52a38.23,38.23,0,0,0-10.7-53c-.82-.55-1.66-1.06-2.52-1.54"/><path class="cls-6" d="M919.25,1176.55c2.13-2.58,4-5,5.7-7.15h0a8,8,0,0,1,10.31-2.15,46.23,46.23,0,0,1,17.9,62.88c-.59,1.06-1.22,2.11-1.9,3.12h0a8,8,0,0,1-11.07,2.35,8.15,8.15,0,0,1-2.42-2.47q-6.28-9.84-12.95-20.1-5.8-8.92-12.66-19.28h0a8.06,8.06,0,0,1,.68-9.77c2-2.2,4.07-4.67,6.38-7.46m13.72,8.73-1.29,1.56c-.81,1-1.71,2-2.68,3.17q4.32,6.55,9.34,14.29l4.38,6.75a30.21,30.21,0,0,0-5.94-21.63,29.79,29.79,0,0,0-3.75-4.11Z"/><path class="cls-5" d="M304.33,1436.81h0c-8.94,155.45,84.4,197.79,173.56,119.4,2.85-.19,5.59-.48,8.24-.86q5.64,5.54,11.19,11.27c-49.86,91.1-242.83-11.43-343.85-34.6a58.54,58.54,0,0,1-44.23-60.47c5.21-82.57,145.6-65.06,195.07-34.75"/><path class="cls-6" d="M477.63,1548.16a8.06,8.06,0,0,1,3.74.77m-.16,15.11c-17,14.61-34.23,25.06-51,31.38,24.7-1.57,44.73-9.64,57-27.64l-1.14-1.16-2.78-2.78H483Zm-168.94-17.78c-12-26-18.16-61-16.21-104.91-19.64-10.67-51.1-19.27-82.58-21.26-19.15-1.21-38.18.06-54.29,4.87-15.25,4.54-27.79,12.25-35,24a49.42,49.42,0,0,0-6.9,23.09,50.48,50.48,0,0,0,38.14,52.15h0c25.27,5.8,56.23,16.51,89.25,27.94,30.34,10.5,62.51,21.64,93.41,30C327.88,1573.14,319.12,1561.16,312.27,1546.26ZM308,1429.62a8.09,8.09,0,0,1,4.37,8.18c-2.37,43.2,3.23,77.2,14.54,101.77,8.72,19,20.81,32.24,35.06,39.71,14.09,7.38,30.57,9.19,48.24,5.33,19.82-4.33,41.14-15.77,62.38-34.44a8,8,0,0,1,5-2c1.32-.1,2.53-.19,3.63-.31h0c1.26-.14,2.53-.3,3.79-.48a8.09,8.09,0,0,1,6.94,2.42c1.74,1.72,3.57,3.54,5.49,5.48s3.9,4,5.64,5.75a8.05,8.05,0,0,1,1,10c-41.06,73.7-162.58,31.65-264.64-3.67-32.49-11.23-62.95-21.78-87.76-27.47h-.16a66.65,66.65,0,0,1-50.31-68.8,65.28,65.28,0,0,1,9.22-30.48c9.52-15.53,25.28-25.46,44.14-31.09,18-5.36,39-6.81,59.9-5.49C250.45,1406.27,286.8,1416.81,308,1429.62Z"/><path class="cls-7" d="M126.89,1433.27c32.76-29.92,103.59-24.83,150.12-8.82q-66.09,111.85-150.12,8.82"/><path class="cls-6" d="M606.86,678.46a8,8,0,0,1,14.13-7.7q19.77,36.21,40.73,60.46,20.53,23.79,42.09,35.87a8.06,8.06,0,1,1-7.88,14.07q-24-13.42-46.39-39.4-22-25.5-42.68-63.3"/><path class="cls-12" d="M632.5,705.65c-114.73,213.14,74.59,248.7,63.09,66q-32.9-20.21-63.09-66"/><path class="cls-6" d="M594.3,864.63c-13-31.4-10-86.48,31.11-162.8h0a7.91,7.91,0,0,1,2.66-2.91,8.07,8.07,0,0,1,11.14,2.3A271.57,271.57,0,0,0,668.75,739l.45.45a155.46,155.46,0,0,0,30.47,25.2,8,8,0,0,1,4,6.44c3.72,58.94-13,96.81-34.4,114.39-13.25,10.9-28.36,14.36-42.13,10.67s-25.63-14.27-32.79-31.53m39.18-143.38c-32.62,65.09-35.12,111.1-24.29,137.19,5.1,12.31,13.16,19.74,22.06,22.13s18.73-.09,27.74-7.51c17.48-14.36,31.16-46.21,28.77-96.88a175.78,175.78,0,0,1-30.23-25.62l-.42-.47a270.14,270.14,0,0,1-23.68-28.83Z"/><path class="cls-6" d="M956.21,683.19a8.05,8.05,0,0,1,13.43,8.89q-19.56,29.65-39.52,49.19-20.32,19.92-41.19,29.42a8,8,0,0,1-6.69-14.64q18.25-8.31,36.59-26.27,18.7-18.33,37.38-46.59"/><path class="cls-12" d="M945.55,711.83c79.47,182.72-78.27,198.88-56.27,49.77q28.37-14.31,56.27-49.77"/><path class="cls-6" d="M952.91,838.12c10.37-20.09,11.53-56.85-9.68-110.83A216.42,216.42,0,0,1,922.86,748a145.68,145.68,0,0,1-26.16,18.76c-5.18,40.49,3.62,66.89,16.61,79.53,6.56,6.38,14.1,9,21,7.71s13.78-6.56,18.6-15.9m.2-129.1c28.46,65.67,27.09,111.37,14.12,136.48-7.23,14.1-18.23,22.23-30.08,24.38s-24.62-1.84-35.07-12c-16.62-16.18-28-48.81-20.79-97.43a8,8,0,0,1,4.72-6.21A126.73,126.73,0,0,0,912.2,736a220.28,220.28,0,0,0,27-29.13A8.06,8.06,0,0,1,953.11,709Z"/><path class="cls-12" d="M816.43,895.21c15-1.23,27.43,2.36,27.9,8s-9.92,27.49-24.86,28.73-28.77-18.59-29.24-24.26,11.27-11.25,26.2-12.49"/><path class="cls-6" d="M833.6,904.4a48.11,48.11,0,0,0-16.35-1.16h-.15a47.85,47.85,0,0,0-16.1,3.85c-1.55.73-2.69-.69-2.74-.12v.2c.25,1.53,2.89,5.53,6.9,9.63s8.78,7.35,13.34,7.13H819c4.38-.49,8.54-4.39,11.68-8.76l.31-.48c3.32-4.77,5.27-9.21,5.23-10.71h0c-.07-.87-1,1-2.69.5M816,887.15a63.94,63.94,0,0,1,22,1.73c8.36,2.4,13.81,7.17,14.36,13.69v.82c0,4.52-3,13.14-8.09,20.47-.14.2-.29.39-.44.57-5.56,7.75-13.69,14.74-23.73,15.57h-.33c-10.16.72-19.42-5.09-26.16-12s-11.1-15.42-11.46-19.65v-.28c-.41-6.41,4.16-11.9,11.91-15.59a64.28,64.28,0,0,1,21.68-5.34Z"/><path class="cls-6" d="M811.44,931.68a8,8,0,1,1,16.08.56q-.63,15.91-6.24,26.45A34.71,34.71,0,0,1,805.74,974q-9.54,4.69-22.71,4.18Q755.6,977.12,710.35,953a8,8,0,0,1,7.57-14.2h0q42,22.41,65.68,23.33,9.12.36,15-2.54a19,19,0,0,0,8.48-8.39q3.85-7.24,4.35-19.44"/><path class="cls-6" d="M811.68,934a8.06,8.06,0,0,1,15.58-4.17c2.66,9.92,8,16.63,14.62,20.44a33.27,33.27,0,0,0,18.92,4.06,45.23,45.23,0,0,0,20.61-6.71,48.22,48.22,0,0,0,21.66-30.37A8.08,8.08,0,1,1,918.78,921a64.22,64.22,0,0,1-28.92,40.4,61.37,61.37,0,0,1-28.05,9.11,49.36,49.36,0,0,1-27.94-6.2c-10.21-5.88-18.33-15.83-22.19-30.22"/><path class="cls-5" d="M663.77,804c9.15,2.09,13.75,16.1,10.29,31.29S660.38,861.12,651.23,859s-13.75-16-10.29-31.25,13.68-25.82,22.83-23.74"/><path class="cls-5" d="M912.17,802c-7.71,3.23-9.61,16.23-4.25,29s16,20.57,23.67,17.35,9.61-16.23,4.25-29-16-20.58-23.67-17.35"/><path class="cls-2" d="M928.28,1449.41q-21.19,21.08-45.26,10.17,28.13,46.49,47.29,64.41,41.91-9.63,54.74-24.89-40.6-18.25-56.77-49.69"/><path class="cls-6" d="M904.6,1454.63q9-2,17.8-10.73a8.28,8.28,0,0,1,2.19-1.66,8.06,8.06,0,0,1,10.85,3.48,87.21,87.21,0,0,0,20.42,25.78q13.26,11.61,32.47,20.26h0a8.47,8.47,0,0,1,1.89,1.19,8.06,8.06,0,0,1,1,11.33q-7.63,9-22.94,16-14.4,6.54-36.16,11.54h0a8,8,0,0,1-7.28-2q-10.2-9.55-22.43-26.19-12.09-16.47-26.26-39.92h0a8.06,8.06,0,0,1,10.21-11.51q9.58,4.33,18.26,2.4m21.59,7.19a48.22,48.22,0,0,1-18.06,8.52,40.48,40.48,0,0,1-8.28,1q8.24,12.86,15.53,22.79a198.26,198.26,0,0,0,17.36,21,166.78,166.78,0,0,0,28.89-9.52,75.92,75.92,0,0,0,8.87-4.7,136.52,136.52,0,0,1-25.25-17.29,105.61,105.61,0,0,1-19.08-21.77Z"/><path class="cls-9" d="M981.86,834.63c87.2-317.34-103.63-561.23-424.79-492.18C427.2,370.36,333,474.51,300,599.25,423.77,380,632.84,315.69,787.86,386.08c-4.28.29-7.59,1.71-9.51,4.34-6.86,9.45,6.7,31,30.29,48.13s48.26,23.38,55.13,13.93c3.16-4.35,2-11.28-2.52-19.16C950,510.45,1004.07,646.19,981.86,834.63"/><path class="cls-6" d="M1001.35,591.21c15.61,72.66,12.8,156.13-11.64,245.22a6.32,6.32,0,0,1-.24.85c-3.27,9.37-1,20.52,1.69,33.52,1.87,9.11,3.92,19,4.62,30.31a89.17,89.17,0,0,1-.12,12.87c-3.28,39.5-32.74,78.2-82.41,108.07-48.37,29.07-116.27,50-197.88,55.17h-.22a657.69,657.69,0,0,1-95.41-1.14h-.12A378.83,378.83,0,0,1,280.45,732.15c-8-92.12,17.13-183.48,67.21-256C396.1,406,467.83,353.38,555.4,334.56c79.07-17,150.51-15.3,212.14,1.64s113.12,48.9,152.81,92.59,67.35,98.93,81,162.42m-27.16,241c23.72-86.49,26.48-167.38,11.38-237.65-13-60.65-39.42-113.38-77.15-154.91s-86.73-71.88-145.11-87.92c-59.17-16.26-128-17.84-204.57-1.39-83.32,17.91-151.65,68.06-197.83,134.94-48,69.51-72.09,157.11-64.38,245.5A362.65,362.65,0,0,0,621.07,1060h0a644,644,0,0,0,93.07,1.14h.19c78.93-5,144.32-25.06,190.65-52.91,45.09-27.11,71.76-61.34,74.59-95.58a72,72,0,0,0,.12-10.59c-.64-10.19-2.55-19.5-4.3-28-3.14-15.29-5.82-28.37-1.2-41.86Z"/><path class="cls-6" d="M576.33,1602.68a353.45,353.45,0,0,1-70.25-23q1.47,32.65.48,58.87-1.2,31.93-6,54.12h0a8.18,8.18,0,0,1-.93,2.37q-8.76,15-5.19,21.21,3.75,6.54,22.3,7.85,72.43,5,106.64-25.17,31.82-28.11,31.87-88.38a352.65,352.65,0,0,1-78.88-7.84M491.67,1561h0a8.08,8.08,0,0,1,9.79-1.26,337.14,337.14,0,0,0,161.41,34.57h.29a8.08,8.08,0,0,1,8.08,8.08v.47Q673.37,1676.18,634,1711t-118.37,29.2q-27.21-1.89-35.23-15.91t4.61-36.16q4.35-20.7,5.46-50.13,1.15-30.63-1.17-70.88a8,8,0,0,1,2.34-6.14Z"/><path class="cls-6" d="M477.63,1548.16a8.06,8.06,0,0,1,3.74.77m-.16,15.11c-17,14.61-34.23,25.06-51,31.38,24.7-1.57,44.73-9.64,57-27.64l-1.14-1.16-2.78-2.78H483Zm-168.94-17.78c-12-26-18.16-61-16.21-104.91-19.64-10.67-51.1-19.27-82.58-21.26-19.15-1.21-38.18.06-54.29,4.87-15.25,4.54-27.79,12.25-35,24a49.42,49.42,0,0,0-6.9,23.09,50.48,50.48,0,0,0,38.14,52.15h0c25.27,5.8,56.23,16.51,89.25,27.94,30.34,10.5,62.51,21.64,93.41,30C327.88,1573.14,319.12,1561.16,312.27,1546.26ZM308,1429.62a8.09,8.09,0,0,1,4.37,8.18c-2.37,43.2,3.23,77.2,14.54,101.77,8.72,19,20.81,32.24,35.06,39.71,14.09,7.38,30.57,9.19,48.24,5.33,19.82-4.33,41.14-15.77,62.38-34.44a8,8,0,0,1,5-2c1.32-.1,2.53-.19,3.63-.31h0c1.26-.14,2.53-.3,3.79-.48a8.09,8.09,0,0,1,6.94,2.42c1.74,1.72,3.57,3.54,5.49,5.48s3.9,4,5.64,5.75a8.05,8.05,0,0,1,1,10c-41.06,73.7-162.58,31.65-264.64-3.67-32.49-11.23-62.95-21.78-87.76-27.47h-.16a66.65,66.65,0,0,1-50.31-68.8,65.28,65.28,0,0,1,9.22-30.48c9.52-15.53,25.28-25.46,44.14-31.09,18-5.36,39-6.81,59.9-5.49C250.45,1406.27,286.8,1416.81,308,1429.62Z"/><path class="cls-15" d="M870.94,1034.51q83.65-29.78,115.17-110.91C817,1162.1,271.2,993.78,299.93,599.31q-56.12,261.75,161.88,414.62Q661,1117,870.94,1034.51"/><path class="cls-15" d="M840.18,1248.08q42.51-10.61,68-54.49-62.88,47.85-149.18-6.85-96.22-72.23-.4-94.79l.59-.13q23.82-5.7,43.59-11.31-4.89,8.4,4.21,21,35.91,15.33,106.47-17.49-127.77,13.53-62.65-19.37,41.12-16.26,47.37-32-220,73.8-392.21,4.83-47.88-32.24-98.63,22.16,9.63,18.9,66.76,5.2-160.41,97.56-49,89,61.41-91.3,125.07-27.81,125.4,105.53,290.07,122"/><path class="cls-15" d="M847.51,1255q25.95-25,73.65-54.36-26.1,48.25-57.48,71-25.09,9.87-68-4.5-153.57-49.41-139,47,14,17.59,110,15.49-98.86,24.75-217.93-9,92.06-73.85,108.11-119.17,157,51.15,190.62,53.57"/><path class="cls-15" d="M604.12,1166.81q-115.87-106.69-141.8-42.19,75.91-24.19,43,124.45Q492,1324.4,472.39,1381.24h0q-5.76,33.23,3.46,55.91h0q52,128.19-30.53,88.34-10-2.57-13.24,9c5.15,38.8-38.09,53.55-93.73,24.74q50.16,70.44,133.79,1.88,110-27.25,34.71-141.11,32.73-110.07,37.06-189.61,36.21,13.32,60.21-63.59"/><path class="cls-15" d="M766.84,1546.64l.43-.9c.63-.64,1.25-1.28,1.86-2h0q18-19.68,22.61-55a48.92,48.92,0,0,1-26.24-31.92c-3.29-16.72-100.44-11.66-129.55,6-58.9,43.61-49,97,34,114.53q69.45,1.49,96.9-30.72M548.78,1320.55q107.87,32.51,213,10.2-108.75,11.14-96,42-61,48.69,118.47,39-17.85,4.93-33.64,9.11,16.29.36,21.59,6.66,9.25-1.26,21.07-3.29-11.41,32.1,22.15,61.82-.75,60.81-34.17,82.5l.32,1.41a129.69,129.69,0,0,1-19,12.36l4.94-.3c-3.75,1.16-7.47,2.28-11.19,3.33a87.15,87.15,0,0,1-30.39,7.63q-125.05,26.87-228.58-26.4,73.18-64.11,9.51-146.62,15.46-16.56,15.37-52.55Q520.15,1316.63,548.78,1320.55Z"/><path class="cls-15" d="M917.53,1510.09q-37.86,10.86-61.36,22.33Q856,1516,859.71,1464q17.64-21.62,31.82,9.3,20,30.09,26,36.76"/><path class="cls-15" d="M917.86,1396.15q44.53-31.82,72.19-38.08-11.61,24.32-44.49,43,20.54,37.77-5.5,55.48,1.56-44.15-22.2-60.39"/><path class="cls-15" d="M926.06,1522.77q-65.17-71.65-9-57.48,7.17,43.38,49.73,39.49-20.29,20.48-40.74,18"/><path class="cls-15" d="M820.35,1485.79a113.49,113.49,0,0,1,20.25-1.49q-2.8,22.37-7.64,37.12h0c-.79,2.42-1.63,4.69-2.5,6.81q-6,22.13,20.59,33.42-48.69,1.75-52.11-16,4.18-6,7.85-10.79,11.13-42.08,13.56-49.07"/><path class="cls-15" d="M345.52,1589q-21.75-35.54-29.43-54.39c-53.17-12.84-253.68-41.42-150-114.06a58.23,58.23,0,0,0-45.63,89.23Q283,1581.24,345.55,1589"/><path class="cls-15" d="M663.21,1605.56Q598.62,1598.51,545,1594c63.67,46.23,35.85,119.2-14.5,132q125,21.9,132.74-120.43"/><path class="cls-15" d="M872,1525.58q29.18-18.63,57.37-5.5,2.8,68.36,50.23,63.47-37.92,26.85-91.85,8.6Q875,1543.45,872,1525.58"/><path class="cls-15" d="M1044.9,1295q-18.93-48.49-30.49-59-22.7,10.39-57-17.5-18.76,17.52.34,25.07,41.58,5.88,30.64,58.42,4.68,65.67,33.87,119.81,24.52,11.27,31.6-13.8,84.47,53.14,115.6,11,16.08-32.62-2.12-60-28.92,14.19-62.58,6.79-40.48-11.61-59.88-70.77"/><path class="cls-15" d="M1155.45,1366.13q-33.24,4.65-45.26.34,158.65-114.85,183.66-143.86-13-57.84-45.7-78.27,41.86-25.26,57.6,25.68,44.54,55.93-1,79.73-113.89,86.34-149.25,116.38"/><path class="cls-15" d="M323,535.55q43.94-107.76,193.63-191.8-27.42,15.86-50.24,26.79,7.13-5.9,14.79-12.78-97.6,53.44-63.48-80Q382,277.67,379,393.24a31.51,31.51,0,0,0,2.48,3.15c-57.83-.62-47.68-73.33,14.63-200.59Q279,359.27,323,535.55"/><path class="cls-15" d="M768.58,344.87a445.1,445.1,0,0,1,77.84,34.3Q856.8,389.66,881.75,406q18.22,17.53,46.92,37.57a316.72,316.72,0,0,0-23.33-22.73q9,5.45,19.17,11.38-83.89-67.08,15-89.47-27.06-23.6-88.33,18c-7.27-34.09,33.42-56.75,123.82-68q-152.85-7.2-206.38,52.09"/><path class="cls-6" d="M778.31,339.35c41.63,12.89,78.52,32.9,110,58.89a318.31,318.31,0,0,1,78.47,97,375.62,375.62,0,0,0,7.8-203.13c-33.21-2.48-67.62,1.25-101.68,10a425.39,425.39,0,0,0-94.57,37.28m-22.82,10.34A8.07,8.07,0,0,1,751.06,337a7.94,7.94,0,0,1,2.27-2C789.74,313.43,829,296.7,868.9,286.48c37.76-9.67,76-13.47,112.82-9.92h0a8,8,0,0,1,7,6,391.33,391.33,0,0,1-13,235.74,8,8,0,0,1-5.48,5.32h-.06a8.07,8.07,0,0,1-9.52-4.37C940.94,476.39,913,439.61,878,410.68c-34.31-28.36-75.48-49.22-122.52-61Z"/><path class="cls-6" d="M323.22,516.78a366.2,366.2,0,0,1,86.7-109.89A329.69,329.69,0,0,1,555.4,334.56c4-.86,8.11-1.69,12.38-2.5l1.48-.28a245.6,245.6,0,0,0-66.11-78.61Q459,218.66,395.49,199.64c-30.29,34.88-51.92,81.41-63.92,138.51-10.78,51.32-13.79,111.13-8.35,178.63m-5.2,38h0a8.09,8.09,0,0,1-8-7.18c-9.12-81.17-6.84-152.46,5.81-212.67,13-61.9,37-112.17,70.83-149.54a8.06,8.06,0,0,1,8.44-2.63q69.58,20,118,57.79a261.94,261.94,0,0,1,75.31,93.32,7.65,7.65,0,0,1,.94,2.77h0a8.06,8.06,0,0,1-6.64,9.14q-6,1-11.92,2.12-5.68,1.08-12,2.44a313.71,313.71,0,0,0-138.35,68.8c-40.91,34.95-73.2,79.86-94.73,130.15a8.08,8.08,0,0,1-7.71,5.44Z"/><path class="cls-6" d="M387.51,1146.62v0ZM932.45,1031.7a8,8,0,0,1-.75,10.92M539.79,1059.2a377.43,377.43,0,0,1-70.58-31.45q-61.65,28.79-60.13,32.8,1.92,5.09,76.32-5.39h0a8,8,0,0,1,5.33,14.81q-78.6,48.55-98.3,70a53.92,53.92,0,0,0-3.78,4.48q10.1,1.36,37.12-4.44,25.94-38.54,55.94-46,31.79-7.92,65.87,18.94h0l.51.44q54.43,50.44,129.43,83.83,73.88,32.88,167.77,49.23,75.8-61.15,94.87-101,16.9-35.33-15.43-52.49h0a7.26,7.26,0,0,1-1.2-.78A8,8,0,0,1,922.1,1081l0-.07a29.58,29.58,0,0,0,6.23-19.54v-.06a29.51,29.51,0,0,0-7.68-18.54l-.39-.38a29.38,29.38,0,0,0-29-8.26l-4.8,2.35h0c-2,.93-3.89,1.82-5.73,2.66h0c-34,15.36-74.73,27.16-120.91,33.69-42.42,6-89.44,7.58-140,3.38h-.12A378.66,378.66,0,0,1,539.79,1059.2Zm-70.18-48.61h0a8,8,0,0,1,4.52,1.37,361.71,361.71,0,0,0,146.94,48h0c49.43,4.09,95.25,2.58,136.5-3.26,44.57-6.31,83.81-17.67,116.49-32.43h.2c1.84-.84,3.6-1.65,5.27-2.45h0c2.55-1.22,4.21-2,5.37-2.6a9.3,9.3,0,0,1,1.36-.52h0a45.77,45.77,0,0,1,45.8,12.57l.4.47a45.52,45.52,0,0,1,12,28.75v.23a45.57,45.57,0,0,1-4.8,22.36q36.54,24.27,15,69.26-21,44-102.12,108.93a8.09,8.09,0,0,1-6.38,1.67h0q-98-16.68-175.22-51t-133.53-86.43q-27.79-21.84-51.88-15.83-24.87,6.19-48.11,41.93a8,8,0,0,1-5.13,3.5q-34.26,7.62-47.65,5.07h0q-13.42-2.57-13.21-13.79.15-7.48,9.16-17.27,16.89-18.36,71.81-53.88-53.36,4.37-58.39-8.93-6.88-18.11,72.24-54.89a8,8,0,0,1,3.37-.74Z"/><path class="cls-15" d="M542.67,1242.65q41.12-19.14,65.47-66,3.89,30.51-39.25,76.24-15.6,43.83,17.6,30.67l-53,29.52,9.21-70.43"/><path class="cls-6" d="M985.25,1322.33a60.51,60.51,0,0,0-3.21-14.49q-10.41,13.7-27.5,24.81-30.4,19.75-82.44,31.37l-.5.13h0l-.58.15q-6.84,1.52-15,3-7.39,1.4-15.78,2.73a10.83,10.83,0,0,1-1.11.21l-.72.06q-57.58,9-136.46,10.28-76.87,1.26-173.67-4.78l-.42,1.46c-.84,2.9-1.65,5.52-2.44,8l-.08.22h0l-.12.4q-1.5,4.68-3,8.79l-.08.23a461,461,0,0,0,128.31,26.59q71.25,4.6,148.94-11a8.05,8.05,0,0,1,7.92,13.31c-10.87,11.51-12.5,22.25-9,30.53,2.62,6.12,8,11.2,14.47,14.47a35.29,35.29,0,0,0,21.63,3.49c10.53-1.84,20.17-9.76,23.8-26.31h0a8,8,0,0,1,13.54-4c13.16,13,27,15.21,37.68,11.28a29.19,29.19,0,0,0,13-9.62,26.28,26.28,0,0,0,5.51-14.53c.56-10.32-5.55-21.91-21.92-30.9h0a8.06,8.06,0,0,1,1.14-14.63q29.15-10.55,49.1-20.92,17.41-9.06,27.16-17.65a70.28,70.28,0,0,0,1.73-22.71m10.07-41.92c-.05,2.84-.2,5.55-.39,8.13-.15,1.92-.39,4.16-.68,6.66a77.43,77.43,0,0,1,7,25.62,86.79,86.79,0,0,1-2.09,28,8,8,0,0,1-2.76,6.19q-11.62,11-32.62,22a376.16,376.16,0,0,1-36.6,16.3c12.71,11.11,17.58,24.3,16.92,36.66a42.54,42.54,0,0,1-8.79,23.49,45.44,45.44,0,0,1-20.31,15c-13.21,4.89-29.32,3.88-44.88-6.89-7,16.08-19.46,24.32-32.93,26.68a51.57,51.57,0,0,1-31.67-5c-9.74-4.91-17.88-12.79-22-22.55-3.93-9.2-4.41-19.83.46-30.92q-69.87,12-134.54,7.81a476.42,476.42,0,0,1-140.69-30.45,8.05,8.05,0,0,1-4.68-10.38v0a6,6,0,0,1,.36-.82c.8-1.94,1.69-4.2,2.64-6.79s1.92-5.39,2.84-8.21l.1-.3v-.07h0l.08-.21c.88-2.73,1.67-5.24,2.31-7.44s1.29-4.6,2-7.23h0v-.09a8.09,8.09,0,0,1,8.86-6.15q100.2,6.45,178.48,5.18t135.22-10.25l.47-.06h.29q7.62-1.21,15.37-2.67c4.65-.88,9.47-1.87,14.42-3a8.13,8.13,0,0,1,1.3-.28q49-11,77-29.12,26.85-17.45,33.79-41.42a8,8,0,0,1,15.76,2.68Z"/><path class="cls-16" d="M1251.72,1136.72a49.62,49.62,0,0,0-9,6.87q-126,115.37-166,144.31-5,24.93,22.5,69.14c1.84.94,3.71,1.88,5.66,2.8-18-39.09-15.66-58.94-.46-71.28,104.9-85.15,152.91-133,152.91-133a181.68,181.68,0,0,0-5.61-18.83"/><path class="cls-6" d="M1128,1376a149.49,149.49,0,0,1-24.62-2.35h0a8,8,0,0,1-5.32-3.48q-17.24-26-24.61-46.43-7.79-21.59-4.66-37.38h0a8,8,0,0,1,3.18-5q19.79-14.31,61-50.11Q1174.7,1195,1237,1138l.32-.32a57.22,57.22,0,0,1,10.71-8.12q11-6.33,21.85-4.29,10.49,2,19.66,11.7a80.87,80.87,0,0,1,10.86,15l.25.44,26.69,50.22.29.63c4.47,10.42,3.93,19.68-.91,28.76-4.26,8-11.94,15.46-22.5,23.36C1203,1331.22,1157,1370.15,1156.83,1370.25c-1,.86-4.73,3.54-6.12,3.81A113.06,113.06,0,0,1,1128,1376m-18.43-17.68a131.22,131.22,0,0,0,18.57,1.6,97.84,97.84,0,0,0,17.43-1.32c9.21-7.69,57.52-47.61,148.89-116,8.76-6.56,14.93-12.4,18-18.06,2.37-4.45,2.63-9.11.45-14.45l-26.55-50a65.28,65.28,0,0,0-8.62-12c-3.71-3.93-7.34-6.24-10.89-6.9q-5-.93-10.87,2.45a40.79,40.79,0,0,0-7.67,5.86l-.51.43q-63.27,57.9-104.27,93.55-39.09,34-59.29,49c-.71,7.14.76,15.79,4.4,25.89q6.22,17.28,20.94,40Z"/><path class="cls-6" d="M1108.47,1371a6.43,6.43,0,0,1-7.37-10.54q66-46.07,111.79-81.92,43.39-34,68.53-58.74-6.69-30.12-16.6-48.29t-22.73-23.81a6.44,6.44,0,1,1,4.9-11.91l.34.15q16.8,7.47,28.79,29.41,11.4,20.85,18.64,55.22a6.42,6.42,0,0,1-1.74,5.85q-25.93,26-72.21,62.26-46,36.06-112.34,82.32"/></g></g></g><path class="cls-17" d="M1824.82,379.52l101.6,245.6,104-245.6H2200l-196,380v188h-155.2V757.92L1656,379.52Z"/><path class="cls-17" d="M2309.61,955.52q-64,0-97.6-38.8t-33.6-113.2V526.72h152v242.4q0,28,12.4,43.2t34,15.2q17.59,0,36-8t36.8-35.2V526.72h152v252.8q0,21.6,6.4,30t22.4,10v128q-39.21,8-64,8-77.61,0-89.6-58.4l-3.2-15.2q-29.61,39.2-70.4,56.4T2309.61,955.52Z"/><path class="cls-17" d="M2970.4,947.52l-95.2-153.6-30.4,33.6v120h-152v-584h152v319.2l112-156h160l-144.8,184,159.2,236.8Z"/><path class="cls-17" d="M3155.19,363.52h152v416.8q0,48,39.2,48a76.24,76.24,0,0,0,20.8-3.2,90.47,90.47,0,0,0,20.8-8.8l19.2,112q-27.21,12.79-61.2,20a311.44,311.44,0,0,1-64.4,7.2q-60.81,0-93.6-31.2t-32.8-90.4Z"/><path class="cls-17" d="M3566.38,955.52a162.41,162.41,0,0,1-58.4-10.4q-27.2-10.39-46.8-28.4a130.22,130.22,0,0,1-30.8-42.8,128.63,128.63,0,0,1-11.2-53.6q0-32,13.6-58.4a140.17,140.17,0,0,1,37.6-45.6q24-19.2,57.2-29.6t73.2-10.4q51.19,0,84.8,16v-12.8q0-29.6-17.2-44t-55.6-14.4q-36,0-66.4,11.6t-64,34l-44-94.4q83.2-53.6,189.6-53.6,100.8,0,155.2,44.8t54.4,134.4v81.6q0,21.6,6.4,30t22.4,10v128q-18.4,4-34.8,6a246.89,246.89,0,0,1-29.2,2q-40.8,0-62-14.8t-27.6-43.6l-3.2-15.2q-28,36-64.8,54.8A170.11,170.11,0,0,1,3566.38,955.52Zm45.6-108.8a95.69,95.69,0,0,0,28-4.4,102.35,102.35,0,0,0,25.6-11.6,65.4,65.4,0,0,0,14.4-14q5.59-7.61,5.6-15.6v-31.2a216.14,216.14,0,0,0-29.6-8,148.63,148.63,0,0,0-28.8-3.2q-28,0-46.4,13.6t-18.4,34.4q0,17.6,14,28.8T3612,846.72Z"/><path d="M4276,565.12a436.15,436.15,0,0,0-49.6-25.6,453.16,453.16,0,0,0-48.4-18,174.67,174.67,0,0,0-52.4-8.4q-20.81,0-33.2,6.4t-12.4,21.6q0,11.21,7.2,18.4t20.8,13.2a260.56,260.56,0,0,0,33.2,11.6q19.6,5.59,44.4,13.6a582.16,582.16,0,0,1,70.8,26.4q31.6,14.4,54,34a130.89,130.89,0,0,1,34.4,47.6q12,28,12,68,0,51.2-18.8,86t-49.6,55.6q-30.79,20.81-69.6,30a337.76,337.76,0,0,1-78,9.2,441.82,441.82,0,0,1-64-4.8,554.54,554.54,0,0,1-65.2-13.6,571.19,571.19,0,0,1-62.4-20.8,399.41,399.41,0,0,1-55.6-27.2l67.2-136.8a472,472,0,0,0,58.4,31.2,414.27,414.27,0,0,0,58,21.6,231.14,231.14,0,0,0,66,9.6q25.6,0,35.6-6.8t10-18q0-12-10-20.4t-27.6-14.8q-17.6-6.4-40.4-12.8t-48.4-15.2q-37.61-12.79-64.8-27.6t-44.8-33.6a120.05,120.05,0,0,1-26-42.8q-8.4-24-8.4-55.2,0-47.21,17.2-83.2t46.8-60a209.43,209.43,0,0,1,67.6-36.4,257.43,257.43,0,0,1,80.4-12.4,305.27,305.27,0,0,1,60.8,6,486.89,486.89,0,0,1,57.2,15.2,547.37,547.37,0,0,1,51.6,20q24,10.8,43.2,20.4Z"/><path d="M4917.58,526.72h143.2l-172,420.8h-124l-56.8-160-56.8,160h-124l-172-420.8h143.2L4600,809.12l26.4-90.4-75.2-192H4672l36,123.2,36-123.2h120.8l-75.2,192,26.4,90.4Z"/><path d="M5204,955.52a162.41,162.41,0,0,1-58.4-10.4q-27.21-10.39-46.8-28.4a130.08,130.08,0,0,1-30.8-42.8,128.63,128.63,0,0,1-11.2-53.6q0-32,13.6-58.4a140,140,0,0,1,37.6-45.6q24-19.2,57.2-29.6t73.2-10.4q51.2,0,84.8,16v-12.8q0-29.6-17.2-44t-55.6-14.4q-36,0-66.4,11.6t-64,34l-44-94.4q83.19-53.6,189.6-53.6,100.8,0,155.2,44.8t54.4,134.4v81.6q0,21.6,6.4,30t22.4,10v128q-18.4,4-34.8,6a247,247,0,0,1-29.2,2q-40.8,0-62-14.8t-27.6-43.6l-3.2-15.2q-28,36-64.8,54.8A170.14,170.14,0,0,1,5204,955.52Zm45.6-108.8a95.74,95.74,0,0,0,28-4.4,102.35,102.35,0,0,0,25.6-11.6,65.84,65.84,0,0,0,14.4-14q5.6-7.61,5.6-15.6v-31.2a216.53,216.53,0,0,0-29.6-8,148.63,148.63,0,0,0-28.8-3.2q-28,0-46.4,13.6t-18.4,34.4q0,17.6,14,28.8T5249.58,846.72Z"/><path d="M5842.38,955.52q-45.6,0-79.2-18t-52-52.4v232.8h-152V526.72h132v63.2q22.39-34.39,55.2-52.8t80.8-18.4q41.59,0,77.6,16.4a182.73,182.73,0,0,1,61.6,45.2q25.59,28.8,40.4,68.8t14.8,86.4q0,47.21-13.6,87.6t-37.6,70a171.12,171.12,0,0,1-56.8,46Q5880.78,955.5,5842.38,955.52Zm-52.8-128a66.36,66.36,0,0,0,30.8-7.2,72.07,72.07,0,0,0,24-20,105.17,105.17,0,0,0,16-29.6,106.25,106.25,0,0,0,6-36q0-40-22.8-64t-60.4-24q-42.41,0-72,43.2v72.8q11.19,28,32.8,46.4T5789.58,827.52Z"/></g></g></svg>